 <svg xmlns="http://www.w3.org/2000/svg" viewBox="0 0 24 24" width="24" height="24" color="#9b9b9b" fill="none">
                    <!-- Repeat Arrows -->
                    <path d="M16.3884 3L17.3913 3.97574C17.8393 4.41165 18.0633 4.62961 17.9844 4.81481C17.9056 5 17.5888 5 16.9552 5H9.19422C5.22096 5 2 8.13401 2 12C2 13.4872 2.47668 14.8662 3.2895 16" 
                        stroke="currentColor" stroke-width="1.5" stroke-linecap="round" stroke-linejoin="round"/>
                    <path d="M7.61156 21L6.60875 20.0243C6.16074 19.5883 5.93673 19.3704 6.01557 19.1852C6.09441 19 6.4112 19 7.04478 19H14.8058C18.779 19 22 15.866 22 12C22 10.5128 21.5233 9.13383 20.7105 8" 
                        stroke="currentColor" stroke-width="1.5" stroke-linecap="round" stroke-linejoin="round"/>
                    
                    <!-- Slash to indicate no repeat -->
                    <line x1="4" y1="4" x2="20" y2="20" stroke="currentColor" stroke-width="1.5" stroke-linecap="round"/>
                </svg>